<?xml version="1.0" encoding="utf-8"?>
<!-- Generator: Adobe Illustrator 16.0.4, SVG Export Plug-In . SVG Version: 6.00 Build 0)  -->
<!DOCTYPE svg PUBLIC "-//W3C//DTD SVG 1.1//EN" "http://www.w3.org/Graphics/SVG/1.1/DTD/svg11.dtd">
<svg version="1.1" id="Layer_1" xmlns="http://www.w3.org/2000/svg" xmlns:xlink="http://www.w3.org/1999/xlink" x="0px" y="0px"
	 width="18px" height="14px" viewBox="0 0 18 14" enable-background="new 0 0 18 14" xml:space="preserve">
<g>
	<path fill="#626262" d="M17.519,1.716c-0.626,0.278-1.301,0.467-2.007,0.552c0.722-0.434,1.275-1.117,1.536-1.935
		c-0.676,0.401-1.422,0.692-2.221,0.848c-0.636-0.68-1.545-1.104-2.551-1.104c-1.929,0-3.494,1.566-3.494,3.495
		c0,0.274,0.03,0.54,0.09,0.796c-2.905-0.146-5.48-1.536-7.205-3.652C1.367,1.234,1.194,1.834,1.194,2.475
		c0,1.213,0.617,2.282,1.555,2.909C2.177,5.366,1.638,5.208,1.166,4.947V4.99c0,1.695,1.205,3.106,2.805,3.427
		C3.677,8.499,3.369,8.54,3.048,8.54c-0.225,0-0.444-0.021-0.657-0.062c0.444,1.388,1.735,2.399,3.265,2.427
		c-1.197,0.938-2.704,1.496-4.341,1.496c-0.282,0-0.561-0.016-0.834-0.049c1.547,0.991,3.384,1.57,5.358,1.57
		c6.43,0,9.945-5.325,9.945-9.944c0-0.152-0.003-0.304-0.01-0.451C16.458,3.032,17.052,2.417,17.519,1.716"/>
</g>
</svg>
