<svg style="position:absolute; width: 0; height: 0;" id="icons" version="1.1" xmlns="http://www.w3.org/2000/svg"><symbol id="icons-facebook" viewBox="0 0 10 18" xmlns:xlink="http://www.w3.org/1999/xlink">
<g>
  <use xlink:href="#Path_1-1234-abcd-5678-efgh" fill="#626262"/>
</g>
<defs>
  <path id="Path_1-1234-abcd-5678-efgh" d="M0.896,6.12h1.758V4.411c0-0.754,0.019-1.916,0.567-2.635c0.576-0.762,1.368-1.28,2.729-1.28
    c2.22,0,3.153,0.316,3.153,0.316l-0.44,2.605c0,0-0.732-0.212-1.416-0.212S5.95,3.45,5.95,4.134V6.12h2.805L8.56,8.665H5.95v8.839
    H2.654V8.665H0.896V6.12z"/>
</defs>
</symbol><symbol id="icons-github" viewBox="0 0 32 32">
  <path d="M0 18 C0 12 3 10 3 9 C2.5 7 2.5 4 3 3 C6 3 9 5 10 6 C12 5 14 5 16 5 C18 5 20 5 22 6 C23 5 26 3 29 3 C29.5 4 29.5 7 29 9 C29 10 32 12 32 18 C32 25 30 30 16 30 C2 30 0 25 0 18 M3 20 C3 24 4 28 16 28 C28 28 29 24 29 20 C29 16 28 14 16 14 C4 14 3 16 3 20 M8 21 A1.5 2.5 0 0 0 13 21 A1.5 2.5 0 0 0 8 21 M24 21 A1.5 2.5 0 0 0 19 21 A1.5 2.5 0 0 0 24 21 z"></path>
</symbol><symbol id="icons-heart" viewBox="0 0 32 32">
  <path d="M0 10 C0 6, 3 2, 8 2 C12 2, 15 5, 16 6 C17 5, 20 2, 24 2 C30 2, 32 6, 32 10 C32 18, 18 29, 16 30 C14 29, 0 18, 0 10"></path>
</symbol><symbol id="icons-skull" viewBox="0 0 32 32">
  <path d="M16 0 C6 0 2 4 2 14 L2 22 L6 24 L6 30 L26 30 L26 24 L30 22 L30 14 C30 4 26 0 16 0 M9 12 A4.5 4.5 0 0 1 9 21 A4.5 4.5 0 0 1 9 12 M23 12 A4.5 4.5 0 0 1 23 21 A4.5 4.5 0 0 1 23 12"></path>
</symbol><symbol id="icons-twitter" viewBox="0 0 18 14" xmlns:xlink="http://www.w3.org/1999/xlink">
<g>
  <path fill="#626262" d="M17.519,1.716c-0.626,0.278-1.301,0.467-2.007,0.552c0.722-0.434,1.275-1.117,1.536-1.935
    c-0.676,0.401-1.422,0.692-2.221,0.848c-0.636-0.68-1.545-1.104-2.551-1.104c-1.929,0-3.494,1.566-3.494,3.495
    c0,0.274,0.03,0.54,0.09,0.796c-2.905-0.146-5.48-1.536-7.205-3.652C1.367,1.234,1.194,1.834,1.194,2.475
    c0,1.213,0.617,2.282,1.555,2.909C2.177,5.366,1.638,5.208,1.166,4.947V4.99c0,1.695,1.205,3.106,2.805,3.427
    C3.677,8.499,3.369,8.54,3.048,8.54c-0.225,0-0.444-0.021-0.657-0.062c0.444,1.388,1.735,2.399,3.265,2.427
    c-1.197,0.938-2.704,1.496-4.341,1.496c-0.282,0-0.561-0.016-0.834-0.049c1.547,0.991,3.384,1.57,5.358,1.57
    c6.43,0,9.945-5.325,9.945-9.944c0-0.152-0.003-0.304-0.01-0.451C16.458,3.032,17.052,2.417,17.519,1.716"/>
</g>
</symbol></svg>