<svg xmlns="http://www.w3.org/2000/svg" style="display: none;"><symbol id="icons-github" viewBox="0 0 32 32">
  <path d="M0 18 C0 12 3 10 3 9 C2.5 7 2.5 4 3 3 C6 3 9 5 10 6 C12 5 14 5 16 5 C18 5 20 5 22 6 C23 5 26 3 29 3 C29.5 4 29.5 7 29 9 C29 10 32 12 32 18 C32 25 30 30 16 30 C2 30 0 25 0 18 M3 20 C3 24 4 28 16 28 C28 28 29 24 29 20 C29 16 28 14 16 14 C4 14 3 16 3 20 M8 21 A1.5 2.5 0 0 0 13 21 A1.5 2.5 0 0 0 8 21 M24 21 A1.5 2.5 0 0 0 19 21 A1.5 2.5 0 0 0 24 21 z"></path>
</symbol><symbol id="icons-heart" viewBox="0 0 32 32">
  <path d="M0 10 C0 6, 3 2, 8 2 C12 2, 15 5, 16 6 C17 5, 20 2, 24 2 C30 2, 32 6, 32 10 C32 18, 18 29, 16 30 C14 29, 0 18, 0 10"></path>
</symbol><symbol id="icons-skull" viewBox="0 0 32 32">
  <path d="M16 0 C6 0 2 4 2 14 L2 22 L6 24 L6 30 L26 30 L26 24 L30 22 L30 14 C30 4 26 0 16 0 M9 12 A4.5 4.5 0 0 1 9 21 A4.5 4.5 0 0 1 9 12 M23 12 A4.5 4.5 0 0 1 23 21 A4.5 4.5 0 0 1 23 12"></path>
</symbol></svg>