<svg id="svgeez" style="display: none;" version="1.1" xmlns="http://www.w3.org/2000/svg"><symbol id="svgeez-facebook" viewBox="0 0 10 18"><path fill="#626262" d="M.896 6.12h1.758V4.411c0-.754.019-1.916.567-2.635.576-.762 1.368-1.28 2.729-1.28 2.22 0 3.153.316 3.153.316l-.44 2.605s-.732-.212-1.416-.212-1.297.245-1.297.929V6.12h2.805L8.56 8.665H5.95v8.839H2.654V8.665H.896V6.12z"/></symbol><symbol id="svgeez-github" viewBox="0 0 32 32"><path d="M0 18c0-6 3-8 3-9-.5-2-.5-5 0-6 3 0 6 2 7 3 2-1 4-1 6-1s4 0 6 1c1-1 4-3 7-3 .5 1 .5 4 0 6 0 1 3 3 3 9 0 7-2 12-16 12S0 25 0 18m3 2c0 4 1 8 13 8s13-4 13-8-1-6-13-6-13 2-13 6m5 1a1.5 2.5 0 0 0 5 0 1.5 2.5 0 0 0-5 0m16 0a1.5 2.5 0 0 0-5 0 1.5 2.5 0 0 0 5 0z"/></symbol><symbol id="svgeez-heart" viewBox="0 0 32 32"><path d="M0 10c0-4 3-8 8-8 4 0 7 3 8 4 1-1 4-4 8-4 6 0 8 4 8 8 0 8-14 19-16 20-2-1-16-12-16-20"/></symbol><symbol id="svgeez-skull" viewBox="0 0 32 32"><path d="M16 0C6 0 2 4 2 14v8l4 2v6h20v-6l4-2v-8C30 4 26 0 16 0M9 12a4.5 4.5 0 0 1 0 9 4.5 4.5 0 0 1 0-9m14 0a4.5 4.5 0 0 1 0 9 4.5 4.5 0 0 1 0-9"/></symbol><symbol id="svgeez-twitter" viewBox="0 0 18 14"><path fill="#626262" d="M17.519 1.716a7.005 7.005 0 0 1-2.007.552A3.504 3.504 0 0 0 17.048.333a6.958 6.958 0 0 1-2.221.848 3.496 3.496 0 0 0-5.955 3.187A9.923 9.923 0 0 1 1.667.716a3.498 3.498 0 0 0 1.082 4.668 3.494 3.494 0 0 1-1.583-.437v.043a3.496 3.496 0 0 0 2.805 3.427 3.422 3.422 0 0 1-.923.123c-.225 0-.444-.021-.657-.062a3.498 3.498 0 0 0 3.265 2.427 7.013 7.013 0 0 1-5.175 1.447 9.9 9.9 0 0 0 5.358 1.57c6.43 0 9.945-5.325 9.945-9.944 0-.152-.003-.304-.01-.451a7.102 7.102 0 0 0 1.745-1.811"/></symbol></svg>
